<svg id="d2b1f639-f371-40b6-9754-b4f6b7eb7346" data-name="apostrophe" xmlns="http://www.w3.org/2000/svg" viewBox="0 0 17 15"><title>Artboard 1apostrophe</title><path d="M5,12.68a2.55,2.55,0,0,1-1.26-.3,3,3,0,0,1-.92-.78,3.51,3.51,0,0,1-.58-1.1,4.25,4.25,0,0,1-.2-1.26,7,7,0,0,1,.34-2.36,5,5,0,0,1,1-1.68A7.44,7.44,0,0,1,4.89,3.9c.59-.39,1.23-.78,1.92-1.18.19-.11.35-.06.48.16a.34.34,0,0,1-.08.52c-.43.32-.83.63-1.2.94a6.22,6.22,0,0,0-1,1,2.64,2.64,0,0,0-.54,1.1,2.9,2.9,0,0,0,.06,1.36.61.61,0,0,0,.28.42,2.3,2.3,0,0,0,.68.14A1.8,1.8,0,0,1,6.91,9a2.47,2.47,0,0,1,.46,1.54,1.9,1.9,0,0,1-.72,1.52A2.5,2.5,0,0,1,5,12.68Zm7.24,0a2.55,2.55,0,0,1-1.26-.3,3,3,0,0,1-.92-.78,3.51,3.51,0,0,1-.58-1.1,4.25,4.25,0,0,1-.2-1.26,7,7,0,0,1,.34-2.36,5,5,0,0,1,1-1.68,7.44,7.44,0,0,1,1.52-1.3c.59-.39,1.23-.78,1.92-1.18.19-.11.35-.06.48.16a.34.34,0,0,1-.08.52c-.43.32-.83.63-1.2.94a6.22,6.22,0,0,0-1,1,2.64,2.64,0,0,0-.54,1.1,2.9,2.9,0,0,0,.06,1.36.61.61,0,0,0,.28.42,2.3,2.3,0,0,0,.68.14,1.8,1.8,0,0,1,1.38.7,2.47,2.47,0,0,1,.46,1.54,1.9,1.9,0,0,1-.72,1.52A2.5,2.5,0,0,1,12.25,12.68Z" style="fill:#f15a24" width="18px" /></svg>