<svg id="e2e0e33b-a507-4647-b53c-bdc2f96edd39" data-name="d2b1f639-f371-40b6-9754-b4f6b7eb7346" xmlns="http://www.w3.org/2000/svg" viewBox="0 0 26.42 23.31"><title>apostrophe-large</title><path d="M6.59,21a5.06,5.06,0,0,1-2.5-.59,6.07,6.07,0,0,1-1.83-1.55,7.07,7.07,0,0,1-1.15-2.19,8.48,8.48,0,0,1-.39-2.5,13.84,13.84,0,0,1,.67-4.69,9.91,9.91,0,0,1,2-3.33,14.52,14.52,0,0,1,3-2.58C7.55,2.78,8.82,2,10.19,1.21c.38-.21.69-.12,1,.32a.67.67,0,0,1-.05,1L11,2.56c-.85.64-1.65,1.25-2.38,1.87a12.08,12.08,0,0,0-2,2A5.24,5.24,0,0,0,5.54,8.6a5.87,5.87,0,0,0,.12,2.7,1.23,1.23,0,0,0,.56.84,4.44,4.44,0,0,0,1.35.27,3.6,3.6,0,0,1,2.82,1.27,5,5,0,0,1,.91,3.06,3.77,3.77,0,0,1-1.43,3A5,5,0,0,1,6.59,21ZM21,21a5.06,5.06,0,0,1-2.5-.59,6.07,6.07,0,0,1-1.83-1.55,7.07,7.07,0,0,1-1.15-2.19,8.49,8.49,0,0,1-.4-2.5,14.1,14.1,0,0,1,.68-4.69,9.89,9.89,0,0,1,2-3.33,14.89,14.89,0,0,1,3-2.58c1.17-.78,2.44-1.55,3.81-2.35.38-.21.7-.12,1,.32a.68.68,0,0,1-.05,1l-.11.08c-.86.64-1.65,1.25-2.38,1.87a11.71,11.71,0,0,0-2,2A5.24,5.24,0,0,0,19.94,8.6a5.61,5.61,0,0,0,.12,2.7,1.22,1.22,0,0,0,.55.84,4.5,4.5,0,0,0,1.35.27A3.57,3.57,0,0,1,24.7,13.8a4.93,4.93,0,0,1,.92,3.06,3.78,3.78,0,0,1-1.43,3A5,5,0,0,1,21,21Z" style="fill:#f15a24"/></svg>