<?xml version="1.0" encoding="utf-8"?>
<!-- Generator: Adobe Illustrator 22.1.0, SVG Export Plug-In . SVG Version: 6.00 Build 0)  -->
<svg version="1.1" id="Layer_1" xmlns="http://www.w3.org/2000/svg" xmlns:xlink="http://www.w3.org/1999/xlink" x="0px" y="0px"
	 viewBox="0 0 874 381" style="enable-background:new 0 0 874 381;" xml:space="preserve">
<g transform="translate(0.000000,381.000000) scale(0.100000,-0.100000)">
	<path d="M4790,3659c-101-24-428-88-685-134c-49-8-108-20-130-25s-53-11-70-14c-16-3-111-21-210-40s-268-51-375-71s-224-43-260-50
		c-36-8-78-16-95-19c-41-7-333-62-425-80c-41-9-129-25-195-37s-136-25-156-30c-70-17-71-19-253-452c-25-60-46-117-46-127
		c0-31-28-50-73-50c-43,0-158-20-262-46c-88-22-108-44-57-62c21-7,37-6,61,4c18,8,63,18,100,23c36,6,78,13,94,17c49,12,75-36,43-82
		c-8-11-24-52-36-92s-26-75-31-78s-37-7-72-9c-34-2-91-11-127-19c-36-9-113-25-172-37c-109-22-134-37-106-65c11-11,37-9,143,12
		c72,14,154,31,184,39c97,26,112-4,60-114c-17-36-34-83-37-104c-5-41-32-60-69-51c-11,3-50-2-89-11c-38-9-118-25-179-36
		c-160-28-195-38-195-59c0-22,31-31,73-20c80,21,177,40,203,40c16,0,47,7,69,15s54,14,72,15c45,0,50-26,20-108c-14-37-29-80-34-97
		c-7-26-14-30-48-33c-86-6-518-95-545-112c-26-16,2-45,41-44c39,2,235,37,297,54c24,6,47,8,53,4c6-3,31,2,55,11c71,27,93-4,55-78
		c-10-20-26-55-35-77c-18-45-65-80-109-80c-15,0-44-7-64-15c-19-8-63-15-97-15c-34-1-72-7-86-15s-45-15-70-15s-56-7-70-15
		s-43-15-65-15s-60-9-84-20s-58-20-75-20c-18,0-41-7-52-15c-10-8-28-15-39-15c-23,0-183-64-240-96c-22-13-47-35-55-50
		c-10-17-25-28-44-30c-40-4-46-14-8-14c18,0,36-7,44-18c19-26,81-62,107-62c12,0,24-7,27-15c4-9,19-15,39-15c18,0,52-9,76-20
		s63-20,86-20s54-5,70-11c15-6,68-15,116-20s107-15,130-22c29-10,100-15,227-16c102-1,223-7,270-14c109-16,521-16,620,0
		c42,7,179,13,310,13c169,1,252,5,295,15c33,8,116,17,185,21c69,3,150,12,181,20s97,14,145,14c66,0,100,5,131,19c33,16,56,18,120,14
		c62-4,97-1,168,18c50,12,108,23,130,25c67,3,226,25,295,40c36,8,81,14,100,14s53,5,75,11s74,17,115,24c165,29,237,44,263,54
		c16,6,42,11,59,11c16,0,62,9,101,19c40,11,108,27,152,36c114,22,293,73,341,95c22,11,48,20,57,20s34,6,54,14c21,8,72,24,113,36
		c231,65,313,94,281,98c-22,3-176-25-266-49c-22-6-61-13-87-16c-47-5-48-4-48,22c0,15,9,43,21,61c62,101,109,308,88,388
		c-6,21-8,44-5,52c8,22,76,45,156,54c41,4,104,14,140,23s90,20,120,26s91,18,135,27s107,20,140,25c33,4,94,15,135,24
		c97,20,146,29,310,60c74,14,155,29,180,35c25,5,75,14,112,19s71,12,77,15c5,3,37,10,72,16s111,19,169,30s134,25,170,31
		s99,19,140,29c138,32,207,22,355-53c139-70,205-129,255-226c74-146-65-347-385-556c-102-67-157-97-410-223
		c-262-131-726-322-781-322c-16,0-42-9-59-20c-16-11-42-20-56-20c-15,0-32-7-39-15s-22-15-34-15c-11,0-34-7-50-15c-15-8-38-15-50-15
		c-11,0-34-7-50-15c-15-8-43-15-61-15s-43-8-56-19c-13-10-35-20-49-24c-14-3-38-10-55-15c-77-27-163-52-181-52c-11,0-28-6-39-14
		c-11-7-36-16-55-18c-19-3-48-10-65-16c-74-27-133-44-175-51c-25-4-55-13-67-19c-12-7-42-12-66-12c-26,0-49-6-56-14
		c-6-8-33-17-59-21s-59-13-74-21s-44-14-65-14s-47-6-58-14c-11-7-45-16-76-19s-71-12-87-21c-17-9-45-16-63-16s-55-7-83-15
		c-94-26-191-45-234-45c-23,0-59-7-79-15c-20-9-71-18-112-22c-41-3-86-12-101-20c-14-7-45-13-70-14c-25,0-54-4-64-8c-19-7-19-8,2-13
		c12-3,39-2,59,4c21,5,83,13,138,18c168,13,305,30,412,51c57,10,123,19,147,19s60,7,79,15c20,8,52,15,71,15c18,0,56,6,82,14
		c96,27,140,38,204,47c36,5,76,15,90,21s50,15,80,18c30,4,69,12,85,18c42,14,110,31,174,43c29,5,66,16,82,24c15,8,44,15,63,15
		c20,0,50,6,68,14c41,18,121,42,170,50c20,4,50,13,65,21s41,15,56,15c16,0,38,6,50,12c12,7,42,18,67,24c25,7,70,19,100,29
		c30,9,75,22,100,28c25,7,55,18,67,25c12,6,33,12,48,12c14,0,39,7,55,15c15,8,77,30,137,50c59,19,122,40,138,46c17,6,73,26,125,44
		s120,43,150,55s66,25,80,30c14,4,59,22,100,39c80,34,80,34,180,79c36,16,99,44,140,61c41,18,113,53,160,78c47,26,110,60,140,76
		c129,70,318,206,392,283c20,22,53,66,72,98c32,53,36,68,36,129c0,92-34,145-139,216c-42,28-80,51-84,51c-5,0-23,6-40,14
		c-41,17-196,73-222,79c-67,16-215,62-215,68c0,15,39,39,80,48c25,5,75,17,112,25c36,9,79,16,95,16c15,0,57,9,91,20
		c35,11,78,20,95,20s44,4,61,10c17,5,48,12,68,15c30,5,39,11,44,32c4,14,25,44,48,67c74,74,97,209,54,323c-48,129-188,202-358,188
		c-65-5-78-3-93,12c-17,17-160,254-302,501c-74,128-117,187-136,185c-14-1-150-28-294-59c-38-8-155-30-260-49c-182-33-225-41-380-72
		c-38-7-117-22-175-33c-285-52-552-102-610-115c-36-8-153-30-260-50s-226-42-264-50c-93-20-149-19-168,3c-14,16-69,107-208,345
		C4908,3695,4918,3690,4790,3659z M4882,3598c9-7,40-53,68-103c28-49,86-150,128-224c42-73,87-141,100-149c20-13,31-14,75-3
		c29,7,86,19,127,27s88,19,104,24c16,6,45,10,66,10c20,0,59,7,87,15c27,8,76,19,109,24c32,5,102,19,154,31s122,25,155,30
		s94,16,135,24c41,9,109,23,150,31c41,9,105,22,141,30c37,8,75,15,85,15s45,6,78,14c34,8,113,24,176,36s142,28,175,35
		c33,8,112,23,175,35c129,23,237,45,322,64c88,21,56,61,351-444c27-47,71-122,98-166c49-82,60-123,37-142c-17-13-291-82-328-82
		c-27,0-80,47-80,71c0,5-22,45-49,88c-28,44-58,94-68,113c-45,82-167,278-179,289c-10,8-26,8-61,0c-27-6-68-11-93-10s-77-2-117-6
		c-84-9-95-21-60-74c13-20,38-61,57-91c18-30,69-113,112-185c44-71,90-148,103-170c12-22,60-102,106-177s92-151,101-167
		c16-29,20-31,77-31c33,0,78,6,98,14c21,8,63,17,93,20s73,13,95,21s59,14,81,15c23,0,61,7,84,15s64,15,90,15s64,7,83,15
		c20,8,43,15,51,15c21,0,86-88,86-116c0-27-14-33-57-26c-17,2-62-3-100-11c-37-9-86-19-108-22s-69-12-105-20c-67-14-157-31-315-60
		c-49-9-121-22-160-30c-38-8-122-23-185-35s-146-28-185-35c-38-8-90-17-115-20c-25-4-58-10-75-15c-16-4-86-18-155-30s-152-28-185-36
		s-85-18-115-23s-82-14-115-21c-33-6-96-18-140-26s-111-22-150-30c-38-8-97-18-130-24c-33-5-94-16-135-23c-41-8-104-20-140-26
		c-36-7-93-19-128-27c-66-15-83-12-116,25c-27,30-39,26-33-11c33-205,30-287-15-418c-50-144-166-288-246-306c-15-3-49-13-76-21
		c-132-42-319,26-375,135c-10,21-28,55-38,77c-11,22-26,70-33,107c-13,63-10,126,12,282c8,51-58,9-69-44c-6-30-40-49-62-36
		c-5,4-41,0-78-8c-121-27-388-76-409-76c-11,0-31,11-44,25c-44,47-48,36-42-113c4-133,4-140-27-236c-17-54-31-109-31-121
		c0-27-72-127-123-172c-66-58-87-64-225-66c-107-2-134,1-172,18c-76,33-108,64-154,149c-61,113-80,196-72,314c7,83,6,92-10,92
		c-26,0-54-30-54-57c0-12-3-23-7-23c-93-1-208-13-236-25c-20-8-61-15-91-15c-31,0-73-6-93-14c-21-8-63-17-93-21c-30-3-74-13-98-21
		c-23-8-62-14-86-14s-57-7-72-15c-18-9-56-15-97-15s-76-6-90-14c-12-8-51-17-87-21s-77-14-92-21c-15-8-58-14-95-14c-40-1-78-7-93-15
		c-14-8-39-14-56-15c-17,0-47-6-65-14c-19-7-64-17-101-21l-68-7v29c0,15,9,43,20,61s20,37,20,43c0,9,10,33,75,174
		c13,28,52,120,88,205c144,341,179,424,187,439c9,16,334,779,373,876c11,28,24,54,29,60c4,5,8,20,8,33c0,39,57,88,118,101
		c29,6,65,11,80,11s45,7,67,15s59,14,83,15c24,0,52,4,62,10c10,5,58,16,107,24c97,16,163,29,264,51c37,8,80,15,97,15
		c16,0,49,7,73,15c24,9,71,17,104,19c33,1,69,7,80,13s43,14,70,18c28,3,77,12,110,20c125,29,285,56,294,50c6-3,23,0,38,8
		s62,19,103,26s104,19,140,26c36,8,106,21,155,30c50,8,122,22,160,30c39,8,122,23,185,35c63,11,134,25,158,30c23,6,55,10,70,10
		c15,1,38,7,52,15C4851,3613,4862,3613,4882,3598z M8183,2919c62-32,85-79,47-99c-10-6-27-26-36-46c-9-19-28-41-43-48
		c-34-18-148-49-316-86c-180-40-255-40-255,0c0,20,40,34,180,65c170,38,225,57,285,98c72,49,75,53,75,95c0,26,4,32,21,32
		C8152,2930,8171,2925,8183,2919z M4440,1585c6-8,16-43,20-77c5-35,12-73,16-86c9-32-12-52-55-52s-294-46-333-62c-29-11-37-33-16-40
		c6-2,41,2,77,9c36,8,106,20,155,28s104,19,122,25c44,15,69,6,94-34c37-61,24-86-45-86c-42,0-240-37-278-52c-17-6-35-26-45-47
		c-16-34-21-36-77-44c-64-8-162-24-207-34c-44-9-45,19-7,126c28,82,34,112,37,206c5,124,12,141,71,151c20,3,70,12,111,19
		c41,8,118,21,170,30s106,20,120,25C4409,1602,4427,1601,4440,1585z M2964,1287c19-72,31-148,25-159c-4-7-27-13-51-14
		c-40-2-257-43-322-62c-40-11-44-30-10-42c21-9,42-6,93,10c36,11,84,23,106,26s70,13,107,21c61,14,70,14,91,0c13-8,30-30,37-47
		c20-48,5-64-66-71c-70-8-232-37-244-44c-4-2-72-9-151-15s-167-15-195-21c-74-14-492-32-794-33c-254,0-504,15-539,33
		c-9,5-33,11-53,15c-21,4-56,19-78,33c-33,22-40,32-40,59c0,59,95,126,260,184c19,6,47,17,61,23c37,15,59,3,59-31c0-29-19-82-42-113
		c-16-23-3-53,20-43c9,4,37,9,62,11s68,10,95,18c50,15,106,26,330,65c66,11,148,27,182,35s74,15,89,15s50,7,78,15
		c28,8,107,23,176,35c69,11,147,25,174,32c26,6,74,14,105,18c31,5,101,18,156,30C2899,1318,2955,1322,2964,1287z M3120,865
		c12-13,38-29,56-35c19-7,34-16,34-21c0-15-39-10-81,12c-34,17-53,20-119,15c-43-2-102-11-132-19c-29-9-82-21-117-27
		c-55-10-66-9-80,4c-14,15-13,16,9,16c14,0,57,8,95,16c69,16,123,26,218,40c26,4,50,11,53,15C3066,898,3097,890,3120,865z"/>
	<path d="M4798,3425c-3-3-30-10-59-15c-49-8-179-32-329-60c-30-6-84-17-120-24c-36-8-121-24-190-36c-165-28-211-40-217-57
		c-5-12,23-72,117-248c21-38,78-146,127-240c50-93,160-300,245-460c85-159,171-322,191-361c46-92,53-97,113-85c176,34,225,45,230,52
		c4,7-179,375-197,394c-5,5-9,16-9,25c0,20,90,110,110,110c8,1,117-104,241-231l226-232l39,7c21,4,57,9,79,12s68,12,103,21
		c47,12,62,20,62,34c0,10-6,22-13,26c-32,18-527,548-527,562c0,9,32,48,71,86c39,39,75,78,80,88c8,13-7,50-67,165
		c-42,81-84,156-94,167s-34,54-55,95C4867,3397,4825,3452,4798,3425z M4780,3335c16-20,3-54-23-59c-109-23-293-59-387-76
		c-63-11-158-30-210-40c-53-11-108-20-122-20c-46,0-117,77-75,81c6,1,39,3,72,4s94,10,135,18c41,9,149,30,240,47s192,37,225,44
		C4717,3353,4765,3353,4780,3335z M4687,3025c10-14,33-46,51-70s35-58,38-74c5-26,2-32-32-54c-51-33-159-135-152-143
		c12-12,86,47,171,137c84,89,90,93,103,74c18-24,18-56,1-98c-19-44-161-175-222-203c-62-29-152-33-162-8c-6,16-1,22,52,59
		c20,13,20,14-3,30c-12,9-32,35-43,58c-12,23-46,84-77,135c-52,87-54,93-38,111c11,12,44,23,94,31c42,7,93,19,112,26
		C4636,3056,4667,3053,4687,3025z"/>
	<path d="M6615,3209c-27-5-72-14-99-20c-26-6-74-15-105-20c-84-12-156-34-159-50c-3-14,54-129,236-479c53-102,121-234,152-295
		c62-123,45-114,175-97c39,5,83,14,98,20c16,7,48,12,72,12s72,9,107,20c34,11,77,20,94,20c33,0,93,17,108,31c5,5,4,15-4,24
		c-7,9-32,48-54,88c-41,71-42,72-81,71c-22-1-95-12-162-24c-137-26-144-24-169,37c-17,40-9,62,25,68c28,6,205,45,234,52
		c9,2,17,11,17,18c0,18-89,145-106,152c-7,2-74-7-149-22s-142-24-150-21c-17,6-55,78-55,104c0,31,20,40,130,57c107,17,140,28,140,45
		c0,6-29,54-64,109c-64,97-64,98-111,105C6681,3221,6683,3221,6615,3209z M6711,3134c26-31-2-48-142-81c-74-18-143-32-155-33
		c-31,0-89,42-89,65c0,18,10,21,85,27c47,4,117,14,155,21C6661,3153,6695,3153,6711,3134z M7094,2484c9-3,16-17,16-30
		c0-29-40-42-165-51c-75-5-93-3-103,10c-17,20-14,21,103,46c54,12,101,24,104,27C7055,2492,7076,2491,7094,2484z"/>
	<path d="M3577,3191c-74-19-85-29-111-104c-10-29-43-115-73-192c-31-77-70-178-88-225c-111-286-210-540-255-650
		c-21-52-64-160-95-240s-67-171-80-203c-26-62-31-87-16-87c5,0,42,11,83,25c47,16,105,27,163,31c67,3,94,9,106,22c9,9,33,60,53,112
		s43,109,51,125c8,17,28,67,46,113c27,70,36,83,58,88c14,2,49,11,77,19s66,15,86,15c19,0,59,7,89,16s77,20,104,24c28,4,71,13,97,21
		c63,17,69,11,148-149c35-70,74-142,88-161c25-33,25-33,86-27c76,8,245,41,254,50c3,4-5,28-20,54c-14,26-47,88-73,137
		c-26,50-68,128-93,175c-47,89-102,194-222,425c-40,77-89,172-110,210c-20,39-61,115-90,170c-72,137-101,187-118,208
		C3703,3214,3666,3214,3577,3191z M3634,3127c25-19,17-59-15-74c-37-18-42-26-86-138c-22-55-72-180-112-277c-39-98-87-221-105-275
		c-19-54-85-226-146-383c-87-221-118-291-142-313c-31-30-75-34-71-7c1,8,33,92,71,185c38,94,100,249,137,345c38,96,97,249,132,340
		c36,91,89,226,118,300s63,164,75,200s27,71,33,79C3548,3139,3605,3148,3634,3127z M3686,2628c40-80,115-207,125-213c4-3,20,2,35,12
		c25,16,27,16,41-3c16-22,11-97-9-121c-38-46-257-99-385-94c-16,1-23,7-23,22c0,24,41,43,135,63c72,15,123,42,107,58c-6,6-23,6-48,0
		c-74-19-133-23-155-12c-26,15-22,44,20,140c16,36,40,92,53,125c12,33,27,63,33,67C3640,2691,3661,2678,3686,2628z"/>
	<path d="M3225,3125c-22-7-71-18-110-24c-38-6-106-19-150-27c-44-9-111-22-150-29c-185-35-303-57-330-62c-54-10-70-30-109-131
		c-20-53-45-117-56-142c-10-25-41-103-69-175c-27-71-80-206-116-300c-36-93-88-226-114-295c-27-69-61-159-76-200
		c-16-41-47-122-70-180s-48-123-55-145s-19-49-26-60c-8-11-14-30-14-44c0-22,3-23,38-17c20,4,64,11,97,16s76,13,95,19s53,11,76,11
		s61,7,84,15s54,15,69,15c14,0,67,9,116,21c50,11,118,27,152,35s79,14,100,14c51,0,81,22,89,66c4,19,18,59,32,87c14,29,28,66,33,82
		c4,17,22,70,38,120c18,53,27,93,22,98c-6,6-27,3-53-6c-23-8-86-22-138-31s-128-24-168-33c-68-15-74-15-89,0s-14,21,15,78
		c18,34,32,66,32,71s9,28,19,51s42,101,71,172c29,72,67,166,86,211s34,84,34,88c0,3,11,24,24,44c24,38,26,39,138,61
		c275,55,341,70,349,78c11,11,78,166,89,208c5,17,25,73,44,125c41,108,42,116,20,124C3275,3141,3274,3141,3225,3125z M3155,3040
		c10-17-4-47-31-65c-13-9-147-40-297-70s-284-60-298-65c-19-8-32-28-52-78c-14-37-92-238-172-447c-81-209-185-478-232-599
		c-46-120-89-227-96-237c-6-10-26-26-44-36c-59-31-59-9,0,138c52,128,121,306,213,544c23,61,87,225,142,365c54,140,111,292,126,337
		c15,46,32,86,38,89c5,3,82,19,171,34c200,35,470,89,476,95C3107,3054,3149,3050,3155,3040z M2686,1809c12-20-32-64-82-82
		c-63-24-239-30-239-8c0,27,53,52,160,75C2654,1822,2676,1824,2686,1809z"/>
	<path d="M5948,3077c-32-7-63-17-69-24c-12-12-39-114-39-150c0-28,25-30,40-4c5,11,10,32,10,46c0,41,17,63,60,76c33,10,43,9,65-5
		c36-24,32-54-8-71c-42-18-53-31-60-77c-15-96-81-158-168-158c-76,0-102,42-43,68c13,7,24,16,24,22c0,13-154,134-212,165
		c-45,25-49,25-115,13c-61-11-133-41-133-56c0-6,306-605,387-756c32-60,66-114,75-119c12-8,34-5,85,11c37,12,84,22,104,22
		c42,0,58,23,36,49c-8,9-42,72-77,141s-77,148-95,176c-43,66-49,88-31,103c22,18,73-1,125-46c26-22,46-32,52-26c5,5,14,36,19,68
		c17,95,19,102,35,109c24,9,65-15,72-43c3-14,9-30,13-36c4-5,54-101,110-213s108-206,115-208c7-3,34,2,59,10c26,9,63,16,82,16
		c46,0,74,16,74,41c0,11-47,111-104,222s-153,298-212,414c-60,117-114,215-120,217C6073,3086,5999,3087,5948,3077z"/>
	<path d="M4920,1790c0-5,6-13,14-17c17-10,38-51,32-62c-3-5-17-6-31-3c-21,4-34-4-71-44c-37-41-47-47-62-38c-12,8-16,22-14,45l2,34
		l-19-35c-26-45-28-160-5-216c35-86,106-143,177-144c28,0,97,41,129,77c10,11,25,50,35,87c28,116-3,217-90,291
		C4978,1798,4920,1814,4920,1790z"/>
	<path d="M3440,1503c0-5,7-17,15-27c27-35,19-56-19-56c-29,0-41-8-72-45c-53-66-100-56-76,15c7,18,7,30,1,30c-5,0-9-6-9-14
		c0-7-7-19-15-26c-22-18-21-189,1-233c33-65,113-127,165-127c51,0,142,73,170,138c50,115-4,299-98,338
		C3467,1511,3440,1514,3440,1503z"/>
</g>
</svg>
