<?xml version="1.0" encoding="utf-8"?>
<!-- Generator: Adobe Illustrator 22.1.0, SVG Export Plug-In . SVG Version: 6.00 Build 0)  -->
<svg version="1.1" id="Layer_1" xmlns="http://www.w3.org/2000/svg" xmlns:xlink="http://www.w3.org/1999/xlink" x="0px" y="0px"
	 viewBox="0 0 562 552" style="enable-background:new 0 0 562 552;" xml:space="preserve">
<style type="text/css">
	.st0{fill:#C0C0BE;}
	.st1{fill:#D1D0CE;}
</style>
<g>
	<g>
		<g>
			<path class="st0" d="M124.5,484.9v-33.2c0-86.3,70.2-156.5,156.5-156.5s156.5,70.2,156.5,156.5v33.2H124.5z M187.8,336.9
				C153,365.2,133,407,133,451.7v24.7h144.7l-103-58.9l19.9-86.2L187.8,336.9z M284.3,476.4H429v-24.7c0-44.6-20-86.5-54.7-114.8
				l-6.8-5.5l19.9,86.2L284.3,476.4z M281,303.7c-22.8,0-44.8,5.2-65.5,15.5l-2.6,1.3l68.5,143.8l2.7-5.6
				c12.4-25.2,41.8-87.9,63.8-135.6l1.2-2.6l-2.6-1.3C325.8,308.9,303.8,303.7,281,303.7L281,303.7z M184.4,413.3l87,49.7L205,323.8
				L184.4,413.3z M353.3,331.7c-30.8,66.7-47.4,102-57.2,121.8l-4.3,8.8l85.9-49.1L357,323.8L353.3,331.7z"/>
			<path class="st0" d="M281,298.2c27.4,0,53.1,7.2,75.3,19.8l-5.8,12.5c-30.8,66.6-47.4,101.9-57.1,121.8l-8.7,17.6l17-9.7
				l75.4-43.1l3.9-2.2l-1-4.3l-18.2-78.8l-2.8-12.1c45.1,26.8,75.4,76,75.4,132.1V482H127.5v-30.2c0-56.1,30.3-105.3,75.4-132.1
				l-2.7,11.9l-18.2,79l-1,4.3l3.9,2.2l76.7,43.8l16.6,9.5l-8.2-17.3l-58.5-122.8l-5.8-12.2C227.9,305.4,253.6,298.2,281,298.2
				 M281.3,471.2l5.5-11.1c12.5-25.3,41-86.4,63.8-135.7l2.4-5.3l-5.2-2.6c-21.1-10.5-43.6-15.8-66.9-15.8
				c-23.2,0-45.7,5.3-66.8,15.8l-5.3,2.6l2.5,5.3L276,460L281.3,471.2 M383.9,416l-91.3,52.2l-11.6,6.6l-11.6-6.6L178.1,416
				l17.4-75.5l3.9-17l-13.6,11c-35.5,28.9-55.9,71.6-55.9,117.1v21.7v6h6h130.4H289l0,0h6.6H426v-6h6v-21.7
				c0-45.5-20.4-88.2-55.9-117.1l-13.6-11l3.9,17L383.9,416 M281,292.2c-87.9,0-159.5,71.5-159.5,159.5v36.2h318.9v-36.2
				C440.5,363.7,368.9,292.2,281,292.2L281,292.2z M281.4,457.4l-64.5-135.5c19.4-9.6,41.1-15.2,64.1-15.2l0,0
				c23.1,0,44.8,5.6,64.2,15.2C324.6,366.5,294.4,431,281.4,457.4L281.4,457.4z M264.5,455.6l-76.7-43.8l18.2-79L264.5,455.6
				L264.5,455.6z M298.8,454.9c9.9-20,26.9-56.2,57.2-121.9l18.2,78.8L298.8,454.9L298.8,454.9z M295.6,473.4l95.2-54.4l-18.4-79.8
				C405,365.8,426,406.3,426,451.7v21.7l0,0L295.6,473.4L295.6,473.4z M136,473.4v-21.7c0-45.3,20.9-85.8,53.6-112.4l-18.4,79.8
				l95.1,54.4L136,473.4L136,473.4z"/>
		</g>
		<g>
			<path class="st0" d="M281,289.2c-62.3,0-113-50.7-113-113s50.7-113,113-113s113,50.7,113,113c0,19.7-5.3,39.2-15.3,56.5l-2.6,4.5
				h13.7c5.7,0,10.2-4.6,10.2-10.2v-18.7h8.5V227c0,10.3-8.4,18.7-18.7,18.7H370l-0.9,1.1C347.4,273.7,315.3,289.2,281,289.2
				L281,289.2z M281,71.7c-57.6,0-104.5,46.9-104.5,104.5S223.4,280.7,281,280.7c27.4,0,53.3-10.6,73-29.9l5.3-5.1h-45.5l-0.7,2
				c-2.7,7.5-9.7,12.5-17.6,12.5h-29c-10.3,0-18.7-8.4-18.7-18.7s8.4-18.7,18.7-18.7h29c7.9,0,14.9,5,17.6,12.5l0.7,2h51.9l0.9-1.3
				c12.3-17.6,18.9-38.3,18.9-59.7C385.5,118.6,338.6,71.7,281,71.7z M266.5,231.2c-5.7,0-10.2,4.6-10.2,10.2
				c0,5.7,4.6,10.2,10.2,10.2h29c5.7,0,10.2-4.6,10.2-10.2c0-5.7-4.6-10.2-10.2-10.2H266.5z"/>
			<path class="st0" d="M281,66.2c60.6,0,110,49.3,110,110c0,19.2-5.1,38.2-14.9,55l-5.2,9h10.4h8.4c7.3,0,13.2-5.9,13.2-13.2v-15.7
				h2.5V227c0,8.7-7.1,15.7-15.7,15.7h-18.3h-2.9l-1.8,2.2c-21.1,26.2-52.3,41.3-85.7,41.2c-60.6,0-110-49.3-110-110
				C171,115.6,220.4,66.2,281,66.2 M281,283.7c28.2,0,54.8-10.9,75.1-30.7l10.5-10.3h-14.7h-36h-4.2l-1.4,4
				c-2.2,6.3-8.2,10.5-14.8,10.5h-29c-8.7,0-15.7-7.1-15.7-15.7s7.1-15.7,15.7-15.7h29c6.6,0,12.5,4.2,14.8,10.5l1.4,4h4.2h48.3h3.1
				l1.8-2.6c12.7-18.1,19.4-39.4,19.4-61.4c0-59.3-48.2-107.5-107.5-107.5S173.5,117,173.5,176.3C173.5,235.5,221.7,283.7,281,283.7
				 M266.5,254.7h29c7.3,0,13.2-5.9,13.2-13.2s-5.9-13.2-13.2-13.2h-29c-7.3,0-13.2,5.9-13.2,13.2S259.2,254.7,266.5,254.7
				 M281,60.2c-63.9,0-116,52-116,116c0,63.9,52,116,116,116c36.5,0,69.1-17,90.4-43.5h18.3c12,0,21.7-9.8,21.7-21.7v-21.7H397V227
				c0,4-3.2,7.2-7.2,7.2h-8.4c9.9-17.1,15.7-36.9,15.7-58C397,112.3,344.9,60.2,281,60.2L281,60.2z M281,277.7
				c-56,0-101.5-45.5-101.5-101.5S225,74.7,281,74.7s101.5,45.5,101.5,101.5c0,21.6-6.8,41.5-18.3,58h-48.3
				c-3-8.4-11-14.5-20.4-14.5h-29c-12,0-21.7,9.8-21.7,21.7s9.8,21.7,21.7,21.7h29c9.4,0,17.4-6.1,20.4-14.5h36
				C333.6,266.6,308.6,277.7,281,277.7L281,277.7z M266.5,248.7c-4,0-7.2-3.3-7.2-7.2s3.2-7.2,7.2-7.2h29c4,0,7.2,3.3,7.2,7.2
				c0,4-3.2,7.2-7.2,7.2H266.5L266.5,248.7z"/>
		</g>
		<g>
			<path class="st0" d="M399.2,131.8C380.8,82.7,333.7,50,281,50s-99.8,32.8-118.2,81.8l-8-2.8c19.6-52.5,69.9-87.5,126.2-87.5
				s106.6,35,126.2,87.5L399.2,131.8z"/>
			<path class="st0" d="M281,44.5c54,0,102.4,33,122.3,82.7l-2.4,0.8c-19.6-48.7-67-81-119.9-81s-100.4,32.3-119.9,81l-2.4-0.8
				C178.6,77.5,227,44.5,281,44.5 M281,38.5c-58.5,0-110.8,37.1-130.1,92.3l13.7,4.8C181.8,86.2,228.6,53,281,53
				s99.2,33.2,116.4,82.6l13.7-4.8C391.8,75.6,339.5,38.5,281,38.5L281,38.5z"/>
		</g>
		<path class="st1" d="M165,227h-7.2c-28,0-50.7-22.8-50.7-50.7s22.8-50.7,50.7-50.7h7.2V227z"/>
		<path class="st1" d="M404.2,227H397V125.5h7.2c28,0,50.7,22.8,50.7,50.7S432.2,227,404.2,227z"/>
	</g>
</g>
</svg>
