<svg xmlns="http://www.w3.org/2000/svg" viewBox="0 0 983.91 590.46"><defs><style>.cls-1,.cls-2{fill:#8cc63f;}.cls-2{opacity:0.31;}.cls-3{fill:#f7931e;}.cls-4{fill:#d4145a;}.cls-5{fill:#0071bc;}.cls-6{fill:#c1272d;}.cls-7{font-size:88.65px;fill:#fff;font-family:Arial-Black, Arial Black;}.cls-8{font-size:46.17px;}</style></defs><title>Layer 1weblogo</title><g id="Layer_2" data-name="Layer 2"><g id="Layer_1-2" data-name="Layer 1"><circle class="cls-1" cx="486.98" cy="343.05" r="138.51"/><circle class="cls-2" cx="173.95" cy="340.28" r="60.02"/><circle class="cls-2" cx="724.29" cy="124.21" r="60.02"/><circle class="cls-2" cx="800.01" cy="342.13" r="60.02"/><rect class="cls-3" x="176.72" y="319.04" width="11.08" height="42.48"/><rect class="cls-3" x="189.12" y="322.74" width="25.06" height="35.09"/><rect class="cls-3" x="215.51" y="333.82" width="132.97" height="12.93"/><rect class="cls-3" x="476.02" y="563.87" width="9.78" height="42.48" transform="translate(-93.63 1078.6) rotate(-91.24)"/><rect class="cls-3" x="469.48" y="550.46" width="22.11" height="35.09" transform="translate(-76.91 1060.75) rotate(-91.24)"/><rect class="cls-3" x="442.14" y="512.43" width="74.65" height="12.93" transform="translate(-28.9 1009.51) rotate(-91.24)"/><rect class="cls-3" x="695.54" y="542.56" width="11.08" height="42.48" transform="translate(760.27 1461.51) rotate(-132.58)"/><rect class="cls-3" x="675.43" y="531.98" width="25.06" height="35.09" transform="translate(748.78 1427.91) rotate(-132.58)"/><rect class="cls-3" x="567.13" y="483.9" width="132.97" height="12.93" transform="translate(701.22 1288.71) rotate(-132.58)"/><rect class="cls-4" x="812.05" y="318.64" width="11.08" height="42.48" transform="translate(9.84 -22.77) rotate(1.61)"/><rect class="cls-4" x="824.44" y="322.88" width="25.06" height="35.09" transform="translate(9.86 -23.31) rotate(1.61)"/><rect class="cls-4" x="850.79" y="336.21" width="132.97" height="12.93" transform="translate(9.96 -25.56) rotate(1.61)"/><rect class="cls-3" x="706.54" y="113.83" width="11.08" height="42.48" transform="translate(1319.39 -260.51) rotate(136.18)"/><rect class="cls-3" x="685.56" y="130.95" width="25.06" height="35.09" transform="translate(1304.6 -227.71) rotate(136.18)"/><rect class="cls-3" x="573.64" y="197.65" width="132.97" height="12.93" transform="translate(1243.32 -91.82) rotate(136.18)"/><rect class="cls-3" x="259.2" y="125.71" width="16.62" height="35.09" transform="translate(167.5 -143.24) rotate(42.59)"/><rect class="cls-3" x="257.31" y="122.19" width="11.08" height="5.54" transform="translate(153.89 -144.91) rotate(42.59)"/><rect class="cls-3" x="244.16" y="136.66" width="11.08" height="5.54" transform="translate(160.21 -132.2) rotate(42.59)"/><polygon class="cls-3" points="284.36 139.93 265.61 160.33 276.49 170.33 286.82 167.28 294.31 159.12 295.23 149.93 284.36 139.93"/><rect class="cls-3" x="276.34" y="198.9" width="118.19" height="11.08" transform="translate(226.82 -173.07) rotate(42.59)"/><rect class="cls-5" x="142.24" y="323.13" width="16.62" height="35.09" transform="translate(318.11 673.32) rotate(177.11)"/><rect class="cls-5" x="161.32" y="347.42" width="11.08" height="5.54" transform="translate(351.18 691.5) rotate(177.11)"/><rect class="cls-5" x="160.23" y="327.89" width="11.08" height="5.54" transform="translate(348.01 652.54) rotate(177.11)"/><polygon class="cls-5" points="141.11 355.02 139.71 327.36 124.95 328.1 119.89 337.61 120.45 348.67 126.35 355.77 141.11 355.02"/><rect class="cls-5" x="0.2" y="340.67" width="118.19" height="11.08" transform="translate(136 688.99) rotate(177.11)"/><rect class="cls-6" x="734.56" y="86.31" width="16.62" height="35.09" transform="translate(114.94 514.16) rotate(-41.12)"/><rect class="cls-6" x="718.64" y="103.7" width="11.08" height="5.54" transform="translate(108.61 502.51) rotate(-41.12)"/><rect class="cls-6" x="731.58" y="118.36" width="11.08" height="5.54" transform="translate(102.16 514.64) rotate(-41.12)"/><polygon class="cls-6" points="741.41 86.74 759.63 107.61 770.76 97.89 768.86 87.29 761.58 78.94 752.54 77.02 741.41 86.74"/><rect class="cls-6" x="752.03" y="37.5" width="118.19" height="11.08" transform="translate(171.77 544.05) rotate(-41.12)"/><rect class="cls-3" x="477.64" y="78.05" width="14.39" height="35.09" transform="translate(577.85 -389.74) rotate(89.7)"/><rect class="cls-3" x="490.28" y="79.09" width="9.59" height="5.54" transform="translate(574.3 -413.65) rotate(89.7)"/><rect class="cls-3" x="470.73" y="79.29" width="9.59" height="5.54" transform="translate(555.05 -393.9) rotate(89.7)"/><polygon class="cls-3" points="498.73 104.31 471.03 104.46 471.1 117.25 480.36 122 491.44 121.94 498.8 117.1 498.73 104.31"/><rect class="cls-3" x="445.46" y="158.36" width="81.32" height="11.08" transform="translate(647.43 -323.09) rotate(89.7)"/><rect class="cls-3" x="766.53" y="322.13" width="16.62" height="35.09" transform="translate(1552.65 672.52) rotate(179.5)"/><rect class="cls-3" x="785.2" y="347.08" width="11.08" height="5.54" transform="translate(1584.53 692.74) rotate(179.5)"/><rect class="cls-3" x="784.92" y="327.53" width="11.08" height="5.54" transform="translate(1583.8 653.64) rotate(179.5)"/><polygon class="cls-3" points="764.81 353.62 764.57 325.92 749.79 326.05 744.33 335.33 744.43 346.41 750.04 353.75 764.81 353.62"/><rect class="cls-3" x="624.34" y="335.86" width="118.19" height="11.08" transform="translate(1369.86 676.78) rotate(179.5)"/><rect class="cls-3" x="283.56" y="542.19" width="16.62" height="35.09" transform="translate(-318.45 398.51) rotate(-47.66)"/><rect class="cls-3" x="268.06" y="561.7" width="11.08" height="5.54" transform="translate(-327.92 386.55) rotate(-47.66)"/><rect class="cls-3" x="282.59" y="574.79" width="11.08" height="5.54" transform="translate(-332.85 401.56) rotate(-47.66)"/><polygon class="cls-3" points="288.48 542.9 308.95 561.55 318.9 550.63 315.81 540.32 307.62 532.86 298.43 531.98 288.48 542.9"/><rect class="cls-3" x="293.66" y="486" width="118.19" height="11.08" transform="translate(-248.16 421.25) rotate(-47.66)"/><circle class="cls-3" cx="485.14" cy="343.05" r="127.43"/><text class="cls-7" transform="translate(384.8 382.51)">API<tspan class="cls-8" x="167.46" y="0">S</tspan></text></g></g></svg>