<?xml version="1.0" encoding="utf-8"?>
<!-- Generator: Adobe Illustrator 21.0.0, SVG Export Plug-In . SVG Version: 6.00 Build 0)  -->
<svg version="1.1" id="Layer_1" xmlns="http://www.w3.org/2000/svg" xmlns:xlink="http://www.w3.org/1999/xlink" x="0px" y="0px"
	 viewBox="0 0 148 148" style="enable-background:new 0 0 148 148;" xml:space="preserve">
<g>
	<path d="M127.5,64c1.5-0.4,3-0.6,4.6-0.6c1.6,0,3.1,0.2,4.6,0.6V3.9H94.2v31.2h33.3V64z"/>
	<path d="M50,74.3c3.6-4.6,5.8-10.4,5.8-16.7c0-14.8-12.1-26.9-26.9-26.9C14.1,30.8,2,42.8,2,57.7C2,64,4.2,69.7,7.8,74.3l21.1,26.5
		L50,74.3z M22.7,57.7c0-3.4,2.8-6.2,6.2-6.2c3.4,0,6.2,2.8,6.2,6.2c0,3.4-2.8,6.2-6.2,6.2C25.5,63.8,22.7,61.1,22.7,57.7"/>
	<path d="M28.9,125.6c-5.1,0-9.2,4.1-9.2,9.2c0,5.1,4.1,9.2,9.2,9.2c5.1,0,9.2-4.1,9.2-9.2C38.2,129.8,34,125.6,28.9,125.6"/>
	<path d="M128.1,103.8H76.8c-4.8,0-8.6-3.9-8.6-8.6s3.9-8.6,8.6-8.6h37.4c-0.4-1.5-0.6-3-0.6-4.6c0-1.6,0.2-3.1,0.6-4.6H76.8
		c-9.9,0-17.9,8-17.9,17.9c0,9.8,8,17.9,17.9,17.9h51.3c4.8,0,8.6,3.9,8.6,8.6c0,4.8-3.9,8.6-8.6,8.6H46.8c0.4,1.5,0.6,3,0.6,4.6
		c0,1.6-0.2,3.1-0.6,4.6h81.3c9.8,0,17.9-8,17.9-17.9C146,111.8,138,103.8,128.1,103.8"/>
	<path d="M122.9,81.9c0,5.1,4.2,9.2,9.2,9.2c5.1,0,9.2-4.2,9.2-9.2c0-5.1-4.1-9.2-9.2-9.2C127,72.7,122.9,76.8,122.9,81.9"/>
</g>
</svg>
