<?xml version="1.0" encoding="utf-8"?>
<!-- Generator: Adobe Illustrator 22.1.0, SVG Export Plug-In . SVG Version: 6.00 Build 0)  -->
<svg version="1.1" id="Layer_1" xmlns="http://www.w3.org/2000/svg" xmlns:xlink="http://www.w3.org/1999/xlink" x="0px" y="0px"
	 viewBox="0 0 2500 566" style="enable-background:new 0 0 2500 566;" xml:space="preserve">
<style type="text/css">
	.st0{opacity:0.2314;}
	.st1{opacity:0.1608;}
	.st2{fill:#0075B2;}
	.st3{opacity:0.29;}
	.st4{fill:none;stroke:#FFFFFF;stroke-miterlimit:10;}
	.st5{fill:#FFFFFF;}
	.st6{font-family:'Helvetica-Light';}
	.st7{font-size:214px;}
	.st8{letter-spacing:4;}
</style>
<title>Services</title>
<g>
	<g id="efda3789-2094-45de-8c59-e86db2a02dcb">
		
			<image style="overflow:visible;enable-background:new    ;" width="2500" height="566" id="_x38_a5853e2-a5f5-489c-90d1-74a204eabf1c" xlink:href="299C926BFB8313BC.png" >
		</image>
	</g>
	<g id="_x34_71fc68c-728b-446a-ae3d-fc7b70a4ee13" class="st0">
		
			<image style="overflow:visible;enable-background:new    ;" width="2500" height="566" id="_x37_8a63d1c-4d0b-4fea-91db-da5b82a25850" xlink:href="299C926BFB8313BD.png" >
		</image>
	</g>
	<g id="_x31_476db5b-b826-4f9b-ae8e-f9366bf895d6">
		
			<image style="overflow:visible;enable-background:new    ;" width="2352" height="566" id="e047b81f-56d1-4e71-8ddc-fb8c0bcd23cf" xlink:href="299C926BFB8313BB.png" >
		</image>
	</g>
	<g id="_x33_f1f9e92-cd17-45a4-94c3-71d898067cbf">
		
			<image style="overflow:visible;enable-background:new    ;" width="2204" height="566" id="_x33_e690d7d-7564-44df-b92b-584369432bd5" xlink:href="299C926BFB8313C4.png" >
		</image>
	</g>
	<g id="c03676fd-89b7-4b2f-95ca-b22b154bd80d" class="st1">
		
			<image style="overflow:visible;enable-background:new    ;" width="2064" height="566" id="_x33_204cb6a-f80f-4dce-88a5-685278812f1f" xlink:href="299C926BFB8313C7.png" >
		</image>
	</g>
	<g id="b7fa04ca-9e1e-4be6-ae8f-83f9185bc5dc">
		
			<image style="overflow:visible;" width="2064" height="566" id="bb539fef-32e6-4c6d-8da1-57dd35a9aa3b" xlink:href="299C926BFB8313C5.png" >
		</image>
		<path class="st2" d="M1397.6,576.1c0,0-511.6-203.1-73.6-401.1c0,0,328.6-144.9,786.1-175c0,2-2136-21-2136-21v608L1397.6,576.1z"
			/>
	</g>
	<g id="_x32_a413bf1-226a-4cd8-8e58-5ceedb287d10" class="st3">
		<path class="st4" d="M1459,644.4L1459,644.4c7.7-26.6-74.6-111.4-143.4-208.5c-103.5-146-174.7-331.6,152.3-416.4
			c23.9-6.2,49.3-11.1,77.7-15.7c125.7-21.1,295.8-24.8,523.6-17.5"/>
		<path class="st4" d="M1442.9,641.1L1442.9,641.1c7.8-26.3-73.2-113.3-141.5-209c-101.7-142.4-172.1-327.5,151.1-415.2
			c23.6-6.4,48.1-10.6,76.2-15.2C1653.1-18.5,1821-17,2046.3-9.8"/>
		<path class="st4" d="M1426.8,638.2L1426.8,638.2c7.8-26-71.8-115.2-139.6-209.4c-99.9-138.8-169.6-323.6,149.9-414
			c23.3-6.6,46.8-10.2,74.6-14.6c123-19.6,288.8-12.6,511.8-5.6"/>
		<path class="st4" d="M1410.7,635.8L1410.7,635.8c7.9-25.8-70.4-117-137.7-209.8c-98.1-135.3-167-319.5,148.7-412.8
			c23-6.8,45.5-9.7,73-14c121.7-19,285.3-6.6,505.9,0.4"/>
		<path class="st4" d="M1394.6,633.7L1394.6,633.7c7.9-25.5-68.9-118.9-135.8-210.3c-96.4-131.7-164.6-315.5,147.5-411.6
			c22.6-7,44.2-9.3,71.4-13.4c120.4-18.4,281.8-0.5,500,6.4"/>
		<path class="st4" d="M1378.5,632.5L1378.5,632.5c8-25.2-67.5-120.8-133.9-210.7c-94.6-128.1-162.2-311.5,146.3-410.4
			c22.3-7.2,43-8.2,69.8-12.9c118.6-20.6,278.3,5.6,494.1,12.4"/>
		<path class="st4" d="M1362.5,630.9L1362.5,630.9c8-24.9-66.1-122.7-132-211.2c-92.8-124.6-159.8-307.4,145.1-409.2
			c22-7.3,41.8-7.7,68.2-12.3C1561-22.2,1718.6,9.9,1932,16.6"/>
		<path class="st4" d="M1346.4,629.4L1346.4,629.4c8.1-24.7-64.6-124.6-130.1-211.6c-91.1-121-157.5-303.3,143.9-408
			c21.7-7.5,40.5-7.2,66.7-11.7c115.7-20.3,271.3,17.8,482.3,24.3"/>
		<path class="st4" d="M1330.4,628L1330.4,628c8.2-24.4-63.2-126.5-128.2-212C1112.8,298.5,1047,116.8,1344.8,9.2
			c21.3-7.7,39.3-6.6,65.1-11.2c114.3-20.2,267.8,23.8,476.4,30.3"/>
		<path class="st4" d="M1314.3,626.7L1314.3,626.7c8.2-24.1-61.7-128.5-126.3-212.5c-87.6-114-153-295,141.5-405.5
			c21-7.9,38-6.1,63.5-10.6C1505.9-22,1657.3,28,1863.5,34.3"/>
		<path class="st4" d="M1298.3,625.4L1298.3,625.4c8.2-23.8-60.3-130.4-124.4-212.9C1088,302,1023.1,121.7,1314.2,8.1
			c20.7-8.1,36.7-5.5,61.9-10c111.5-19.9,260.8,36,464.6,42.2"/>
		<path class="st4" d="M1282.3,624.2L1282.3,624.2c8.3-23.5-58.8-132.3-122.5-213.4c-84.1-106.9-148.6-286.6,139.1-403.1
			c20.3-8.2,35.5-5,60.3-9.5c110.1-19.8,257.3,42.1,458.7,48.2"/>
		<path class="st4" d="M1266.2,622.9L1266.2,622.9c8.4-23.3-57.3-134.3-120.6-213.8c-82.4-103.4-146.6-282.3,137.9-401.9
			c20-8.4,34.2-4.4,58.8-8.9c108.7-19.6,253.8,48.2,452.8,54.2"/>
		<path class="st4" d="M1250.2,621.7L1250.2,621.7c8.4-23-55.8-136.3-118.7-214.3c-80.7-100-144.5-278,136.7-400.7
			c19.7-8.6,32.9-3.9,57.2-8.3c107.2-19.5,250.3,54.2,446.9,60.2"/>
		<path class="st4" d="M1234.3,620.5L1234.3,620.5c8.5-22.7-54.3-138.3-116.8-214.7c-78.9-96.5-142.6-273.7,135.5-399.5
			c19.3-8.7,31.6-3.4,55.6-7.7c105.8-19.4,246.8,60.3,441.1,66.2"/>
		<path class="st4" d="M1218.3,619.4L1218.3,619.4c8.5-22.5-52.8-140.3-114.9-215.1c-77.2-93-140.6-269.4,134.3-398.3
			c19-8.9,30.4-2.8,54-7.2c104.4-19.2,243.3,66.4,435.2,72.1"/>
		<path class="st4" d="M1202.3,618.2L1202.3,618.2c8.6-22.2-51.2-142.3-113-215.6c-75.5-89.6-138.7-265,133.1-397.1
			c18.6-9.1,29.1-2.3,52.4-6.6C1377.8-20.2,1514.6,71.4,1704,77"/>
		<path class="st4" d="M1186.3,617L1186.3,617c8.6-21.9-49.7-144.3-111.2-216c-73.8-86.1-136.9-260.5,131.9-395.9
			c18.3-9.2,27.8-1.7,50.8-6c101.6-19,236.3,78.6,423.4,84.1"/>
		<path class="st4" d="M1170.4,615.9L1170.4,615.9c8.7-21.6-48.1-146.4-109.2-216.5C989,316.7,926,143.4,1191.8,4.7
			c18-9.4,26.6-1.2,49.3-5.5c100.2-18.8,232.8,84.6,417.5,90.1"/>
		<path class="st4" d="M1154.4,614L1154.4,614c8.7-21.3-46.5-148.5-107.4-216.9c-70.5-79.3-133.3-251.6,129.5-393.5
			c17.6-9.5,25-2.8,47.7-4.9c100.1-9.2,229.3,90.7,411.6,96.1"/>
		<path class="st4" d="M1138.5,613L1138.5,613c8.8-21.1-44.9-150.6-105.5-217.4c-68.8-75.9-131.6-247,128.3-392.3
			c17.3-9.6,23.7-2.4,46.1-4.3c98.7-8.6,225.8,96.8,405.7,102"/>
		<path class="st4" d="M1122.6,612.2L1122.6,612.2c8.8-20.8-43.3-152.8-103.6-217.8c-67.2-72.6-130-242.3,127.1-391.1
			c16.9-9.8,22.4-1.9,44.5-3.8c97.3-8,222.3,102.9,399.8,108"/>
		<path class="st4" d="M1106.7,611.4L1106.7,611.4c8.9-20.5-41.7-154.9-101.7-218.2c-65.6-69.2-128.4-237.7,125.9-389.9
			c16.6-9.9,21.1-1.5,42.9-3.2c96-7.4,218.8,108.9,393.9,114"/>
		<path class="st4" d="M1090.8,610.5L1090.8,610.5c9-20.2-40-157.1-99.8-218.7c-64-65.9-126.8-232.9,124.7-388.7
			c16.2-10,19.8-1.1,41.3-2.6c94.6-6.8,215.3,115,388,120"/>
		<path class="st4" d="M1074.9,609.7L1074.9,609.7c9-20-38.3-159.4-97.9-219.1C914.5,328,851.8,162.5,1100.5,3.2
			c15.9-10.2,18.5-0.6,39.8-2c93.2-6.2,211.8,121.1,382.1,125.9"/>
		<path class="st4" d="M1059,608.9L1059,608.9c9.1-19.7-36.6-161.7-96-219.6c-60.9-59.4-123.7-223.3,122.3-386.2
			c15.5-10.3,17.2-0.2,38.2-1.5c91.8-5.6,208.3,127.2,376.2,131.9"/>
		<path class="st4" d="M1045,608.1L1045,608.1c9.1-19.4-45.7-154.5-94.1-220c-68.4-44.9-122.2-218.4,121.1-385
			c15.2-10.4,15.9,0.2,36.6-0.9c90.5-5,204.8,133.2,370.3,137.9"/>
		<path class="st4" d="M1029.1,607.3L1029.1,607.3c9.2-19.2-44.6-156.1-92.2-220.5c-67-41-120.8-213.4,119.9-383.8
			c14.8-10.5,14.6,0.7,35-0.3c89.1-4.4,201.3,139.3,364.4,143.9"/>
		<path class="st4" d="M1013.3,606.5L1013.3,606.5c9.2-18.9-43.5-157.8-90.3-220.9C857.3,348.5,803.7,177.2,1041.7,3
			c14.5-10.6,13.3,1.1,33.4,0.2c87.7-3.8,197.8,145.4,358.5,149.9"/>
		<path class="st4" d="M997.5,605.7L997.5,605.7c9.3-18.6-42.3-159.5-88.4-221.3C844.8,351.1,791.2,181,1026.6,2.9
			c14.1-10.7,12,1.6,31.8,0.8c86.3-3.2,194.3,151.5,352.7,155.8"/>
		<path class="st4" d="M981.7,604.9L981.7,604.9c9.3-18.3-41.2-161.1-86.5-221.8C832.2,353.8,778.7,185,1011.4,2.9
			c13.8-10.8,10.7,2,30.3,1.4c84.9-2.6,190.8,157.6,346.8,161.8"/>
		<path class="st4" d="M960.2,603.5L960.2,603.5c9.4-18-40.1-162.8-84.6-222.2C814,355.8,797,226.1,990.7,2.3
			c15.2-8.3,9.4,2.4,28.7,2c83.5-2,187.3,163.6,340.9,167.8"/>
		<path class="st4" d="M944.2,602.7L944.2,602.7c9.4-17.8-39-164.5-82.7-222.7c-60.2-21.6-75.5-149.5,113.9-377.8
			c14.9-8.4,8.1,2.8,27.1,2.5c82.1-1.4,183.8,169.7,335,173.8"/>
		<path class="st4" d="M928.1,601.9L928.1,601.9c9.5-17.5-37.9-166.1-80.8-223.1C788.4,361.1,774.8,234.9,960,2.2
			c14.6-8.5,6.8,3.3,25.5,3.1c80.7-0.8,180.2,175.8,329.1,179.7"/>
		<path class="st4" d="M912,601.1L912,601.1c9.5-17.2-36.7-167.8-78.9-223.5c-57.4-13.8-69.3-138.2,111.5-375.4
			c14.3-8.6,5.5,3.7,23.9,3.7c79.3-0.2,176.8,181.9,323.2,185.7"/>
		<path class="st4" d="M896,600.3L896,600.3c9.6-16.9-35.6-169.5-77-224c-56.2-9.9-66.3-132.6,110.2-374.2c14-8.6,4.2,4.2,22.4,4.2
			c77.9,0.4,173.2,188,317.3,191.7"/>
		<path class="st4" d="M879.9,599.5L879.9,599.5c9.7-16.7-34.5-171.1-75.1-224.4C750,369,741.6,248.1,913.9,2.1
			c13.8-8.7,2.9,4.6,20.8,4.8c76.5,1,169.7,194,311.4,197.7"/>
		<path class="st4" d="M863.9,598.7L863.9,598.7c9.7-16.4-33.4-172.8-73.2-224.9c-53.4-2.2-60.1-121.3,107.9-371.8
			c13.5-8.8,1.6,5,19.2,5.4C992.8,9,1084,207.6,1223.2,211.1"/>
		<path class="st4" d="M847.8,597.9L847.8,597.9c9.8-16.1-32.2-174.5-71.3-225.3c-52,1.7-57-115.7,106.7-370.6
			c13.2-8.8,0.3,5.4,17.6,6c73.7,2.1,162.7,206.2,299.6,209.6"/>
		<path class="st4" d="M831.8,597.1L831.8,597.1c9.8-15.8-31.1-176.1-69.4-225.8c-50.7,5.6-53.9-110,105.5-369.4
			c12.9-8.9-1.1,5.9,16,6.5c72.2,2.7,159.2,212.3,293.7,215.6"/>
		<path class="st4" d="M815.8,596.3L815.8,596.3c9.9-15.6-30-177.8-67.5-226.2C698.9,379.5,697.4,265.7,852.5,2
			c12.6-9-2.4,6.3,14.5,7.1c70.8,3.3,155.7,218.4,287.8,221.6"/>
		<path class="st4" d="M799.7,595.5L799.7,595.5c9.9-15.3-28.9-179.4-65.7-226.6c-47.9,13.3-47.7-98.8,103.1-366.9
			c12.3-9.1-3.7,6.8,12.8,7.7c69.4,3.9,152.3,224.4,282,227.6"/>
		<path class="st4" d="M783.7,594.7L783.7,594.7c10-15-27.8-181.1-63.8-227.1c-46.6,17.2-44.6-93.1,101.9-365.7
			c12.1-9.1-5,7.2,11.3,8.2c67.9,4.4,148.7,230.5,276,233.6"/>
		<path class="st4" d="M767.7,593.9L767.7,593.9c10-14.7-26.6-182.8-61.9-227.5c-45.2,21.1-41.6-87.5,100.7-364.5
			c11.8-9.2-6.3,7.6,9.7,8.8c66.5,5,145.2,236.6,270.1,239.5"/>
		<path class="st4" d="M751.7,593.1L751.7,593.1c10.1-14.5-25.5-184.4-60-228c-43.8,25-38.5-81.9,99.5-363.3c11.5-9.3-7.7,8,8.1,9.4
			c65,5.5,141.7,242.7,264.3,245.5"/>
		<path class="st4" d="M735.7,592.3L735.7,592.3c10.1-14.2-24.4-186.1-58.1-228.4c-42.5,28.8-35.4-76.2,98.3-362.1
			c11.2-9.4-9,8.5,6.5,10c63.5,6,138.2,248.7,258.4,251.4"/>
		<path class="st4" d="M719.7,591.6L719.7,591.6c10.2-13.9-23.3-187.8-56.2-228.9c-41.1,32.7-32.3-70.6,97.1-360.9
			c10.9-9.4-10.3,8.9,5,10.5c62.1,6.6,134.7,254.8,252.5,257.5"/>
		<path class="st4" d="M703.7,590.8L703.7,590.8c10.2-13.6-22.2-189.4-54.3-229.3c-39.7,36.6-29.2-64.9,95.9-359.7
			c10.6-9.5-11.7,9.3,3.4,11.1c60.7,7.1,131.2,260.9,246.6,263.4"/>
		<path class="st4" d="M687.7,590.1L687.7,590.1c10.3-13.4-21-191.1-52.4-229.7C597,400.9,609.2,301.1,730,1.9
			c10.3-9.6-12.4,7.1,1.8,11.7c59.6-3.1,127.7,267,240.7,269.4"/>
		<path class="st4" d="M671.8,589.3L671.8,589.3c10.4-13.1-19.9-192.8-50.5-230.2c-37,44.4-23-53.7,93.5-357.3
			c10.1-9.6-13.7,7.5,0.2,12.2c58.2-2.8,124.2,273.1,234.8,275.4"/>
		<path class="st4" d="M655.8,588.5L655.8,588.5c10.4-12.8-18.8-194.4-48.6-230.6c-35.7,48.2-20-48,92.3-356.1
			c9.8-9.7-15,7.9-1.4,12.8C755,12.3,818.8,293.8,927,296"/>
		<path class="st4" d="M639.9,587.8L639.9,587.8c10.5-12.5-17.7-196.1-46.7-231.1c-34.3,52.1-16.9-42.4,91.1-354.9
			c9.5-9.8-16.3,8.3-3,13.4c55.5-2,117.2,285.2,223,287.3"/>
		<path class="st4" d="M623.9,587L623.9,587c10.5-12.2-16.5-197.7-44.8-231.5c-32.9,56-13.8-36.8,89.9-353.7
			c9.2-9.9-17.5,8.6-4.5,13.9c54.1-1.6,113.7,291.3,217.1,293.3"/>
		<path class="st4" d="M608,586.2L608,586.2c10.6-12-15.4-199.4-42.9-231.9c-31.5,59.9-10.7-31.1,88.7-352.5
			c8.9-9.9-18.8,9-6.1,14.5c52.7-1.3,110.2,297.4,211.2,299.3"/>
		<path class="st4" d="M592.1,585.4L592.1,585.4c10.6-11.7-14.3-201.1-41-232.4c-30.2,63.7-7.6-25.5,87.5-351.3
			c8.7-10-20.1,9.4-7.7,15.1c51.3-0.8,106.7,303.5,205.3,305.3"/>
		<path class="st4" d="M576.2,584.6L576.2,584.6c10.7-11.4-13.2-202.7-39.1-232.8c-28.8,67.6-4.5-19.8,86.3-350.1
			c8.4-10.1-21.4,9.8-9.3,15.7c50-0.5,103.2,309.5,199.4,311.3"/>
		<path class="st4" d="M560.3,583.8L560.3,583.8c10.7-11.2-12.1-204.4-37.2-233.3c-27.5,71.5-1.4-14.2,85.1-348.9
			c8.1-10.1-22.7,10.2-10.9,16.2c48.6-0.1,99.7,315.6,193.5,317.2"/>
		<path class="st4" d="M544.5,583L544.5,583c10.8-10.9-10.9-206-35.3-233.7c-26.1,75.4,1.7-8.6,83.9-347.6
			c7.8-10.2-24,10.5-12.5,16.8c47.2,0.2,96.2,321.7,187.6,323.2"/>
		<path class="st4" d="M528.7,582.3L528.7,582.3c10.8-10.6-9.8-207.7-33.4-234.1c-24.7,79.2,4.8-2.9,82.7-346.4
			c7.5-10.3-25.3,10.9-14,17.4c45.8,0.6,92.7,327.8,181.7,329.2"/>
		<path class="st4" d="M512.8,581.5L512.8,581.5c10.9-10.3-8.7-209.4-31.5-234.6c-23.4,83.1,7.8,2.7,81.5-345.2
			c7.2-10.4-26.6,11.4-15.6,18c44.5,1,89.2,333.8,175.9,335.2"/>
		<path class="st4" d="M497,580.7L497,580.7c11-10-7.6-211-29.6-235c-22,87,10.9,8.3,80.3-344c7-10.4-27.8,11.7-17.2,18.5
			c43.1,1.4,85.7,339.9,170,341.1"/>
		<path class="st4" d="M481.3,579.9L481.3,579.9c11-9.8-6.5-212.7-27.7-235.5c-20.6,90.9,14,14,79.1-342.8
			c6.7-10.5-29.1,12.1-18.8,19.1c41.7,1.7,82.2,346,164.1,347.1"/>
		<path class="st4" d="M465.5,579.1L465.5,579.1c11.1-9.5-5.3-214.4-25.8-235.9c-19.3,94.8,17.1,19.6,77.9-341.6
			C523.9-9,487.1,14,497.2,21.2c40.3,2.1,78.7,352.1,158.2,353.1"/>
		<path class="st4" d="M449.8,578.3L449.8,578.3c11.1-9.2-4.2-216-23.9-236.4c-17.9,98.6,20.2,25.3,76.7-340.4
			c6.1-10.6-31.7,12.8-21.9,20.2c39,2.5,75.2,358.2,152.3,359.1"/>
		<path class="st4" d="M434.1,577.6L434.1,577.6c11.2-9-3.1-217.7-22-236.8c-16.5,102.5,23.3,30.9,75.5-339.2
			c5.8-10.7-33,13.2-23.5,20.8c37.6,2.9,71.7,364.2,146.4,365.1"/>
		<path class="st4" d="M423.1,576.9L423.1,576.9c11.2-8.7-2-219.4-20.1-237.2c-15.2,106.4-37.5,22.6,74.3-338
			C480.9-9.9,443,15.3,452.2,23c36.2,3.2,68.2,370.3,140.5,371"/>
		<path class="st4" d="M407,576.1L407,576.1c11.3-8.4-0.8-221-18.2-237.7c-13.9,110.3-33.3,29.6,73-336.8
			c3.4-11.6-35.6,14-26.7,21.9c34.8,3.6,64.6,376.4,134.6,377"/>
		<path class="st4" d="M390.8,575.3L390.8,575.3c11.3-8.1,0.3-222.7-16.4-238.1c-12.5,114.2-28.9,36.4,71.9-335.6
			C449.4-10,409.4,16,418,24.1c33.4,4,61.1,382.5,128.7,383"/>
		<path class="st4" d="M374.6,574.5L374.6,574.5c11.4-7.8,1.4-224.3-14.5-238.5C349,454,335.8,379.2,430.8,1.6
			c2.9-11.6-38.1,14.7-29.9,23.1c32.1,4.3,57.6,388.5,122.8,389"/>
		<path class="st4" d="M358.4,573.8L358.4,573.8c11.4-7.6,2.5-226-12.6-239c-9.7,121.9-19.6,50.1,69.5-333.2
			c2.7-11.6-39.4,15.1-31.4,23.6C414.6,30,438,419.8,500.8,420.2"/>
		<path class="st4" d="M342.3,573L342.3,573c11.5-7.3,3.6-227.7-10.7-239.5c-8.4,125.8-14.7,56.8,68.3-332
			c2.5-11.6-40.7,15.5-33,24.2c29.3,5.1,50.6,400.7,111,400.9"/>
		<path class="st4" d="M326.3,572.2L326.3,572.2c11.5-7,4.8-229.3-8.8-239.9c-7,129.7-9.7,63.6,67.1-330.8
			c2.3-11.6-42,15.9-34.6,24.8c27.9,5.5,47.1,406.8,105.1,406.9"/>
		<path class="st4" d="M310.3,571.4L310.3,571.4c11.6-6.7,5.9-231-6.9-240.3c-5.6,133.6-4.6,70.2,65.9-329.5
			c2-11.7-43.3,16.2-36.2,25.4c26.6,5.9,43.6,412.9,99.2,412.9"/>
		<path class="st4" d="M294.5,570.6L294.5,570.6c11.7-6.5,7-232.7-5-240.8c-4.3,137.4,0.6,76.8,64.7-328.3
			c1.9-11.7-44.6,16.6-37.8,25.9c25.2,6.2,40.1,418.9,93.3,418.9"/>
		<path class="st4" d="M278.8,569.8L278.8,569.8c11.7-6.2,8.1-234.3-3.1-241.2c-2.9,141.3,6,83.4,63.5-327.1
			c1.6-11.7-45.9,17-39.4,26.5c23.8,6.6,36.6,425,87.5,424.8"/>
		<path class="st4" d="M263.2,569L263.2,569c11.8-5.9,9.2-236-1.2-241.7c-1.5,145.2,11.5,89.9,62.3-325.9
			c1.4-11.8-47.1,17.4-40.9,27.1c22.4,7,33.1,431.1,81.6,430.8"/>
		<path class="st4" d="M248.1,568.2L248.1,568.2c11.8-5.6,10.4-237.7,0.7-242.1c-0.2,149.1,17.2,96.3,61.1-324.7
			c1.2-11.8-48.4,17.8-42.5,27.6c21,7.3,29.6,437.2,75.7,436.8"/>
		<path class="st4" d="M233.7,567.4L233.7,567.4c11.9-5.4,11.5-239.3,2.6-242.5c1.2,152.9,22.9,102.6,59.9-323.5
			c1-11.8-49.7,18.1-44.1,28.2c19.7,7.7,26.1,443.2,69.8,442.8"/>
		<path class="st4" d="M219.3,566.7L219.3,566.7c11.9-5.1,12.6-241,4.5-243c2.6,156.8,28.7,108.9,58.7-322.3
			c0.8-11.9-51,18.5-45.7,28.8c18.3,8.1,22.6,449.3,63.9,448.8"/>
		<path class="st4" d="M204.9,565.9L204.9,565.9c12-4.8,13.7-242.6,6.4-243.4c3.9,160.7,34.6,115,57.5-321.1
			c0.6-11.9-52.3,18.9-47.3,29.4c16.9,8.5,19.1,455.4,58,454.7"/>
		<path class="st4" d="M190.5,565.1L190.5,565.1c12-4.5,14.9-244.3,8.3-243.9C204,485.8,239.3,442.3,255,1.3
			c0.4-11.9-53.6,19.3-48.8,29.9c15.6,8.8,15.6,461.5,52.1,460.7"/>
		<path class="st4" d="M173.9,564.3L173.9,564.3c12.1-4.3,16-246,10.2-244.3c6.6,168.5,46.6,127.1,55.1-318.7
			c0.2-12-54.9,19.6-50.4,30.5c14.2,9.2,12.1,467.6,46.2,466.7"/>
		<path class="st4" d="M155.8,563.5L155.8,563.5c12.1-4,17.1-247.6,12.1-244.8c8,172.3,52.8,133.1,53.9-317.5c0-12-56.1,20-52,31.1
			C182.5,41.9,178.3,506,210,505"/>
		<path class="st4" d="M137.4,562.7L137.4,562.7c12.2-3.7,18.2-249.3,14-245.2c9.4,176.2,59,138.9,52.7-316.3
			c-0.2-12.1-57.4,20.4-53.6,31.6c11.4,10,5.1,479.7,34.4,478.7"/>
		<path class="st4" d="M118.4,562L118.4,562c12.2-3.4,19.3-251,15.9-245.6C145,496.4,199.5,461,185.7,1.2
			C185.3-10.9,127,22,130.5,33.5c10,10.3,1.6,485.8,28.5,484.6"/>
		<path class="st4" d="M99,561.2L99,561.2c12.3-3.2,20.5-252.6,17.8-246.1c12.1,184,71.6,150.3,50.3-313.9
			c-0.5-12.2-60,21.2-56.7,32.8c8.7,10.7-1.9,491.9,22.6,490.6"/>
		<path class="st4" d="M80.4,560.4L80.4,560.4c12.4-2.9,20.3-254.5,19.7-246.5C84,501.5,177.9,469.8,149.1,1.2
			c-0.8-12.3-63.2,22.2-58.3,33.4c5.3,12.1-5.4,498,16.7,496.6"/>
		<path class="st4" d="M60.6,559.6L60.6,559.6c12.4-2.6,21.8-256,21.5-247C77.4,504.9,166.4,474.1,130,1.2
			c-0.9-12.4-64.1,22.4-59.9,33.9c4.4,12.1-8.9,504,10.8,502.6"/>
		<path class="st4" d="M40.6,558.8L40.6,558.8c12.5-2.3,23.2-257.6,23.5-247.4c4.5,196.2,90.7,166.9,46.7-310.2
			c-1.2-12.4-64.9,22.5-61.5,34.5c3.5,12.2-12.4,510.1,4.9,508.5"/>
		<path class="st4" d="M20.4,558L20.4,558c12.6-2,24.6-259.3,25.3-247.9c12.3,199.9,97.1,172.2,45.5-309
			C89.9-11.3,25.5,24,28.2,36.3s-15.9,516.2-1,514.5"/>
		<path class="st4" d="M29.4,309c-1.2-12.7-14.7,246.5-27.2,248.3S10.8,49.4,9,36.8S72.1-11.5,73.7,1.1
			C132.9,486.4,48.3,512.3,29.4,309z"/>
	</g>
	<g id="af8be245-f48b-4fb2-b3e2-dff78afaf455">
		<text transform="matrix(1 0 0 1 179.1 368.07)" class="st5 st6 st7 st8">Services</text>
	</g>
</g>
</svg>
